<svg xmlns="http://www.w3.org/2000/svg" xmlns:svg="http://www.w3.org/2000/svg" id="svg8" width="1000" height="1000" version="1.1" viewBox="0 0 264.583 264.583"><metadata id="metadata5"/><g id="layer1" style="display:inline"><rect style="fill:#be364a;fill-opacity:1;stroke:none;stroke-width:.529167" id="rect1407" width="264.583" height="264.583" x="0" y="0"/></g><g id="layer2" style="display:inline"><rect style="fill:#eb5c72;fill-opacity:1;stroke:none;stroke-width:1.188" id="rect1409" width="408.537" height="392.147" x="187.089" y="-187.089" transform="rotate(45)"/></g><g id="layer5"><rect style="fill:#cc576c;fill-opacity:1;stroke:none;stroke-width:.916423;stroke-linejoin:miter;stroke-miterlimit:4;stroke-dasharray:none;stroke-opacity:1;paint-order:normal" id="rect1753" width="187.942" height="294.232" x="-93.524" y="-481.895" transform="rotate(135)"/></g><g id="layer3" style="display:inline"><g id="g845" transform="translate(-5.222649,-5.0650532)"><path id="rect1725" d="m 130.41336,49.119241 a 57.423655,57.423655 0 0 0 -28.71184,49.730347 57.423655,57.423655 0 0 0 -49.730348,28.711822 57.423655,57.423655 0 0 0 0,57.42365 57.423655,57.423655 0 0 0 49.730348,28.71183 H 216.54885 V 98.849588 a 57.423655,57.423655 0 0 0 -28.71183,-49.730347 57.423655,57.423655 0 0 0 -57.42366,0 z" style="fill:#e7e7e7;fill-opacity:1;stroke:none;stroke-width:.287118;stroke-linejoin:miter;stroke-miterlimit:4;stroke-dasharray:none;stroke-opacity:1;paint-order:normal"/><path id="rect1725-0" d="m 101.68808,98.849588 a 57.423655,57.423655 0 0 0 -49.402664,28.710912 57.423655,57.423655 0 0 0 0,57.42337 57.423655,57.423655 0 0 0 49.730294,28.71194 H 216.54774 L 101.70152,98.849588 a 57.423655,57.423655 0 0 0 -0.0134,0 z" style="display:inline;fill:#dcdcdc;fill-opacity:1;stroke:none;stroke-width:.287118;stroke-linejoin:miter;stroke-miterlimit:4;stroke-dasharray:none;stroke-opacity:1;paint-order:normal"/></g></g></svg>